<mxfile host="app.diagrams.net" modified="2024-07-01T09:29:33.551Z" agent="Mozilla/5.0 (X11; Linux x86_64; rv:124.0) Gecko/20100101 Firefox/124.0" etag="VNskjzHWJV1GdVpKhn-e" version="24.6.4" type="device">
  <diagram name="Page-1" id="c7558073-3199-34d8-9f00-42111426c3f3">
    <mxGraphModel dx="1434" dy="785" grid="1" gridSize="10" guides="1" tooltips="1" connect="1" arrows="1" fold="1" page="1" pageScale="1" pageWidth="413" pageHeight="583" background="#ffffff" math="0" shadow="0">
      <root>
        <mxCell id="0" />
        <mxCell id="1" parent="0" />
        <mxCell id="B8RnNG55ZMRvw8sq9Mft-2" value="" style="rounded=0;whiteSpace=wrap;html=1;fillStyle=solid;fillColor=default;strokeColor=none;" vertex="1" parent="1">
          <mxGeometry width="410" height="100" as="geometry" />
        </mxCell>
        <mxCell id="CRcdktGuGfEjBeNu0sR2-122" style="edgeStyle=orthogonalEdgeStyle;rounded=0;jumpStyle=none;jumpSize=7;orthogonalLoop=1;jettySize=auto;html=1;exitX=1;exitY=0.5;exitDx=0;exitDy=0;strokeWidth=2;fontFamily=Courier New;fontSize=14;" parent="1" source="CRcdktGuGfEjBeNu0sR2-98" edge="1">
          <mxGeometry relative="1" as="geometry">
            <mxPoint x="281" y="50.0555555555556" as="targetPoint" />
          </mxGeometry>
        </mxCell>
        <mxCell id="CRcdktGuGfEjBeNu0sR2-98" value="process" style="ellipse;whiteSpace=wrap;html=1;fontFamily=Courier New;fontSize=9;fontColor=#000000;align=center;strokeColor=#000000;strokeWidth=2;fillColor=#FFFFFF;fontStyle=1;verticalAlign=middle;horizontal=1;labelPosition=center;verticalLabelPosition=middle;" parent="1" vertex="1">
          <mxGeometry x="181" y="35" width="80" height="30" as="geometry" />
        </mxCell>
        <mxCell id="CRcdktGuGfEjBeNu0sR2-108" style="edgeStyle=orthogonalEdgeStyle;rounded=0;jumpStyle=none;jumpSize=7;orthogonalLoop=1;jettySize=auto;html=1;entryX=0;entryY=0.5;entryDx=0;entryDy=0;strokeWidth=2;fontFamily=Courier New;fontSize=14;" parent="1" source="CRcdktGuGfEjBeNu0sR2-104" target="CRcdktGuGfEjBeNu0sR2-98" edge="1">
          <mxGeometry relative="1" as="geometry" />
        </mxCell>
        <mxCell id="CRcdktGuGfEjBeNu0sR2-131" style="edgeStyle=orthogonalEdgeStyle;rounded=0;jumpStyle=none;jumpSize=7;orthogonalLoop=1;jettySize=auto;html=1;entryX=0;entryY=0.5;entryDx=0;entryDy=0;strokeWidth=2;fontFamily=Courier New;fontSize=14;" parent="1" target="CRcdktGuGfEjBeNu0sR2-130" edge="1">
          <mxGeometry relative="1" as="geometry">
            <mxPoint x="321" y="50.018518518518476" as="sourcePoint" />
          </mxGeometry>
        </mxCell>
        <mxCell id="CRcdktGuGfEjBeNu0sR2-128" style="edgeStyle=orthogonalEdgeStyle;rounded=0;jumpStyle=none;jumpSize=7;orthogonalLoop=1;jettySize=auto;html=1;entryX=0.5;entryY=0;entryDx=0;entryDy=0;strokeWidth=2;fontFamily=Courier New;fontSize=14;" parent="1" source="CRcdktGuGfEjBeNu0sR2-126" target="CRcdktGuGfEjBeNu0sR2-104" edge="1">
          <mxGeometry relative="1" as="geometry" />
        </mxCell>
        <mxCell id="CRcdktGuGfEjBeNu0sR2-126" value="input 1" style="rounded=0;whiteSpace=wrap;html=1;strokeWidth=2;fontSize=9;fontFamily=Courier New;fontStyle=1;fillColor=#FFFFFF;verticalAlign=middle;horizontal=1;labelPosition=center;verticalLabelPosition=middle;align=center;" parent="1" vertex="1">
          <mxGeometry x="11" y="20" width="70" height="20" as="geometry" />
        </mxCell>
        <mxCell id="CRcdktGuGfEjBeNu0sR2-129" style="edgeStyle=orthogonalEdgeStyle;rounded=0;jumpStyle=none;jumpSize=7;orthogonalLoop=1;jettySize=auto;html=1;entryX=0.5;entryY=0;entryDx=0;entryDy=0;strokeWidth=2;fontFamily=Courier New;fontSize=14;" parent="1" source="CRcdktGuGfEjBeNu0sR2-127" target="CRcdktGuGfEjBeNu0sR2-104" edge="1">
          <mxGeometry relative="1" as="geometry" />
        </mxCell>
        <mxCell id="CRcdktGuGfEjBeNu0sR2-127" value="input 2" style="rounded=0;whiteSpace=wrap;html=1;strokeWidth=2;fontSize=9;fontFamily=Courier New;fontStyle=1;fillColor=#FFFFFF;verticalAlign=middle;horizontal=1;labelPosition=center;verticalLabelPosition=middle;align=center;" parent="1" vertex="1">
          <mxGeometry x="11" y="60" width="70" height="20" as="geometry" />
        </mxCell>
        <mxCell id="CRcdktGuGfEjBeNu0sR2-130" value="output" style="rounded=0;whiteSpace=wrap;html=1;strokeWidth=2;fontSize=9;fontFamily=Courier New;fontStyle=1;fillColor=#FFFFFF;verticalAlign=middle;horizontal=1;labelPosition=center;verticalLabelPosition=middle;align=center;" parent="1" vertex="1">
          <mxGeometry x="341" y="40" width="60" height="20" as="geometry" />
        </mxCell>
        <mxCell id="CRcdktGuGfEjBeNu0sR2-113" value="" style="endArrow=none;html=1;strokeWidth=2;fontFamily=Courier New;fontSize=14;" parent="1" edge="1">
          <mxGeometry width="50" height="50" relative="1" as="geometry">
            <mxPoint x="131" y="60" as="sourcePoint" />
            <mxPoint x="131" y="40" as="targetPoint" />
          </mxGeometry>
        </mxCell>
        <mxCell id="CRcdktGuGfEjBeNu0sR2-104" value="" style="shape=partialRectangle;whiteSpace=wrap;html=1;bottom=1;right=1;left=1;top=0;fillColor=none;routingCenterX=-0.5;rounded=0;strokeWidth=2;fontFamily=Courier New;fontSize=14;rotation=-90;resizeHeight=0;resizable=1;" parent="1" vertex="1">
          <mxGeometry x="131" y="30" width="20" height="40" as="geometry" />
        </mxCell>
        <mxCell id="CRcdktGuGfEjBeNu0sR2-114" value="" style="endArrow=none;html=1;strokeWidth=2;fontFamily=Courier New;fontSize=14;" parent="1" edge="1">
          <mxGeometry width="50" height="50" relative="1" as="geometry">
            <mxPoint x="151" y="60" as="sourcePoint" />
            <mxPoint x="151" y="40" as="targetPoint" />
          </mxGeometry>
        </mxCell>
        <mxCell id="CRcdktGuGfEjBeNu0sR2-115" value="" style="endArrow=none;html=1;strokeWidth=2;fontFamily=Courier New;fontSize=14;" parent="1" edge="1">
          <mxGeometry width="50" height="50" relative="1" as="geometry">
            <mxPoint x="141" y="60" as="sourcePoint" />
            <mxPoint x="141" y="40" as="targetPoint" />
          </mxGeometry>
        </mxCell>
        <mxCell id="CRcdktGuGfEjBeNu0sR2-145" value="" style="shape=partialRectangle;whiteSpace=wrap;html=1;bottom=1;right=1;left=1;top=0;fillColor=none;routingCenterX=-0.5;rounded=0;strokeWidth=2;fontFamily=Courier New;fontSize=14;rotation=-90;resizeHeight=0;resizable=1;" parent="1" vertex="1">
          <mxGeometry x="291" y="30" width="20" height="40" as="geometry" />
        </mxCell>
        <mxCell id="CRcdktGuGfEjBeNu0sR2-146" value="" style="endArrow=none;html=1;strokeWidth=2;fontFamily=Courier New;fontSize=14;" parent="1" edge="1">
          <mxGeometry width="50" height="50" relative="1" as="geometry">
            <mxPoint x="311" y="60" as="sourcePoint" />
            <mxPoint x="311" y="40" as="targetPoint" />
          </mxGeometry>
        </mxCell>
        <mxCell id="CRcdktGuGfEjBeNu0sR2-147" value="" style="endArrow=none;html=1;strokeWidth=2;fontFamily=Courier New;fontSize=14;" parent="1" edge="1">
          <mxGeometry width="50" height="50" relative="1" as="geometry">
            <mxPoint x="301" y="60" as="sourcePoint" />
            <mxPoint x="301" y="40" as="targetPoint" />
          </mxGeometry>
        </mxCell>
        <mxCell id="CRcdktGuGfEjBeNu0sR2-148" value="" style="endArrow=none;html=1;strokeWidth=2;fontFamily=Courier New;fontSize=14;" parent="1" edge="1">
          <mxGeometry width="50" height="50" relative="1" as="geometry">
            <mxPoint x="291" y="60" as="sourcePoint" />
            <mxPoint x="291" y="40" as="targetPoint" />
          </mxGeometry>
        </mxCell>
      </root>
    </mxGraphModel>
  </diagram>
</mxfile>
